<svg xmlns="http://www.w3.org/2000/svg" width="500" height="500" viewBox="0 0 500 500" version="1.1">
	<path d="M 96.280 0.944 C 95.059 1.477, 93.771 3.064, 93.418 4.471 C 91.546 11.928, 103.230 86.288, 108.515 100.557 L 110.018 104.613 103.972 118.400 C 92.143 145.375, 85.674 167.561, 82.365 192.500 C 80.989 202.872, 80.087 206.440, 77.906 210.148 C 76.403 212.704, 70.325 223.954, 64.399 235.148 C 58.474 246.341, 48.234 264.275, 41.644 275 C 15.651 317.302, 7.023 338.360, 7.007 359.540 C 6.999 370.095, 8.799 378.032, 13.189 386.792 C 16.613 393.625, 25.686 404.186, 31.465 408.067 C 35.478 410.761, 35.444 409.925, 32.058 422.500 C 26.316 443.824, 23.704 468.857, 26.069 479.885 C 27.253 485.408, 28.879 487.368, 31.455 486.379 C 32.921 485.816, 33.064 484.859, 32.460 479.655 L 31.756 473.586 38.757 480.068 C 45.838 486.624, 53.892 491.451, 59.646 492.587 C 64.331 493.512, 67 490.441, 67 484.126 C 67 476.860, 64.838 471.946, 55.369 457.689 C 46.040 443.642, 42.958 437.486, 40.493 427.972 C 38.919 421.899, 39.225 416, 41.113 416 C 41.637 416, 44.189 417.074, 46.783 418.387 C 52.718 421.390, 66.499 426.246, 75 428.330 C 88.641 431.674, 114.516 433.424, 173.500 434.991 C 210.226 435.967, 214.802 436.487, 231 441.519 C 250.828 447.680, 264.593 443.652, 268.090 430.666 C 269.454 425.602, 267.363 416.963, 262.871 409.098 C 254.926 395.187, 227.580 372.398, 205.389 361.196 C 192.565 354.723, 173.919 348.412, 158.500 345.326 C 145.827 342.789, 113.586 342.804, 99.500 345.353 C 86.345 347.733, 65.451 352.688, 62.968 354.017 C 60.900 355.124, 60.304 358.452, 61.987 359.492 C 62.531 359.828, 68.574 358.733, 75.417 357.059 C 101.573 350.662, 123.126 348.346, 141.500 349.958 C 163.538 351.893, 179.371 356.175, 198.500 365.375 C 231.498 381.245, 259.258 406.936, 261.681 423.848 C 262.191 427.413, 262.100 427.345, 257.871 421 C 251.729 411.787, 238.300 398, 235.469 398 C 230.588 398, 231.683 401.132, 239.295 408.937 C 247.460 417.310, 251.371 422.220, 255.345 429.088 C 258.720 434.920, 258.679 435.568, 254.851 436.902 C 247.895 439.327, 246.980 438.799, 239.009 427.750 C 229.417 414.454, 218.290 402.814, 215.550 403.208 C 211.471 403.795, 212.666 407.002, 219.693 414.332 C 225.809 420.711, 237 434.894, 237 436.266 C 237 436.553, 233.603 435.709, 229.451 434.390 C 219.714 431.298, 208.261 429.367, 194.500 428.498 L 183.500 427.803 183.446 422.148 C 183.407 417.956, 182.689 415.199, 180.673 411.496 C 176.488 403.810, 168.630 393.788, 159.410 384.380 C 151.473 376.279, 150.865 375.869, 147.768 376.525 C 138.576 378.469, 134.061 385.403, 129.033 405.298 C 127.393 411.787, 125.134 419.169, 124.013 421.703 L 121.975 426.311 107.237 425.661 C 76.971 424.327, 58.228 418.828, 39.168 405.691 C 25.267 396.109, 16.382 383.121, 13.977 368.866 C 12.447 359.791, 13.223 350.904, 16.550 339.425 C 19.141 330.485, 25.938 313.605, 26.658 314.324 C 26.873 314.539, 26.316 318.942, 25.421 324.108 C 23.323 336.214, 23.817 349.297, 26.549 353.950 C 29.273 358.591, 34.285 361.145, 38.074 359.824 C 41.903 358.490, 44.558 355.180, 50 344.964 C 53.235 338.890, 57.115 333.773, 63.804 326.763 C 80.924 308.819, 81.801 300.864, 69.914 271.383 C 62.304 252.511, 62.280 253.015, 71.612 235.165 C 75.934 226.899, 79.619 220.286, 79.802 220.468 C 80.150 220.817, 78.530 233.236, 77.428 238.658 C 76.911 241.202, 77.182 242.027, 78.824 242.906 C 83.465 245.389, 84.978 239.386, 87.499 208.500 C 89.777 180.589, 92.264 168.043, 99.896 145.940 C 103.911 134.312, 113.086 112.950, 122.177 94.060 C 126.879 84.290, 127.087 83.537, 125.421 82.318 C 122.988 80.540, 121.188 82.283, 117.510 89.980 C 115.927 93.291, 114.361 96, 114.029 96 C 112.163 96, 101.558 34.269, 100.329 16.250 L 99.698 7 124.099 7.010 C 137.520 7.016, 153.900 7.487, 160.500 8.058 C 172.589 9.103, 189.565 12.104, 194.717 14.106 L 197.500 15.188 192.500 17.171 C 185.767 19.843, 183.773 21.708, 185.067 24.126 C 185.619 25.157, 186.573 26, 187.188 26 C 187.802 26, 193.963 23.698, 200.879 20.885 C 218.985 13.519, 229.852 10.939, 245.500 10.291 C 266.864 9.406, 283.801 12.702, 310.186 22.878 C 321.590 27.277, 325.440 27.901, 326.362 25.500 C 327.249 23.187, 326.186 21.455, 323.212 20.369 C 320.724 19.461, 321.118 19.243, 328 17.719 C 343.102 14.376, 352.784 13.702, 376 14.374 C 388.375 14.732, 399.719 15.293, 401.208 15.621 L 403.916 16.217 400.489 23.022 C 398.604 26.765, 393.419 38.978, 388.968 50.164 C 378.946 75.343, 372.250 89.668, 371.083 88.429 C 370.065 87.348, 358.893 61.282, 357.076 55.750 C 356.098 52.770, 355.341 52, 353.391 52 C 348.363 52, 348.841 53.945, 360.505 81 C 370.555 104.310, 372.713 110.669, 378.079 132.773 C 383.523 155.202, 383.949 158.068, 381.153 153.484 C 380.141 151.825, 376.949 148.342, 374.060 145.744 C 361.772 134.696, 345.558 135.531, 333.159 147.851 C 330.032 150.958, 326.580 155.300, 325.487 157.500 C 324.394 159.700, 323.411 161.664, 323.303 161.864 C 323.194 162.064, 321.396 161.164, 319.307 159.864 C 308.618 153.211, 300.133 151.245, 288.935 152.829 C 284.489 153.458, 278.862 154.852, 276.430 155.928 L 272.009 157.884 271.361 155.192 C 269.225 146.324, 259.380 133.833, 251.188 129.597 C 246.842 127.350, 235.077 125.971, 229.995 127.113 C 222.566 128.782, 216.577 132.317, 209.947 138.947 C 201.688 147.206, 198.703 153.263, 198.587 162 C 198.421 174.458, 205.457 183.991, 219.870 190.836 C 227.007 194.226, 228.108 194.456, 236.999 194.418 C 251.991 194.354, 259.876 190.674, 266.545 180.630 C 268.442 177.772, 270.558 173.013, 271.247 170.054 C 272.451 164.885, 272.715 164.573, 278 162.087 C 282.874 159.794, 284.752 159.500, 294.500 159.500 C 304.515 159.500, 305.957 159.741, 310.607 162.195 C 317.652 165.911, 321.996 169.772, 322.022 172.339 C 322.090 179.012, 329.743 188.231, 339 192.791 C 343.930 195.219, 345.589 195.499, 355 195.487 C 364.256 195.475, 366.120 195.167, 370.734 192.890 L 375.967 190.308 376.604 193.700 C 376.954 195.566, 377.074 197.203, 376.870 197.338 C 376.667 197.473, 371.663 200.462, 365.750 203.982 C 357.273 209.027, 355 210.846, 355 212.583 C 355 216.796, 357.963 216.215, 367.877 210.060 L 377.500 204.085 379.236 209.792 C 380.191 212.932, 380.978 215.725, 380.985 216 C 380.992 216.275, 377.467 216.500, 373.152 216.500 C 363.704 216.500, 360.563 218.180, 362.952 221.957 C 363.660 223.076, 365.740 223.350, 371.935 223.139 C 376.368 222.987, 380.904 223.152, 382.015 223.505 C 383.959 224.122, 388.634 231.699, 387.667 232.667 C 387.407 232.927, 385.463 232.263, 383.347 231.192 C 381.231 230.121, 377.925 228.912, 376 228.507 C 374.075 228.101, 371.995 227.363, 371.377 226.867 C 369.761 225.570, 367 226.906, 367 228.985 C 367 231.406, 368.776 232.686, 375.196 234.895 C 378.209 235.932, 382.063 237.498, 383.760 238.376 C 386.722 239.908, 386.805 240.124, 385.825 243.736 C 382.623 255.537, 371.929 269.206, 359.709 277.116 C 338.402 290.909, 322.094 294.439, 279.500 294.477 C 243.505 294.509, 218.550 291.406, 194.500 283.907 C 184.044 280.647, 169 274.225, 169 273.022 C 169 272.364, 178.899 265.067, 189 258.279 C 199.631 251.134, 213.598 243.100, 228.967 235.286 C 238.024 230.682, 245.745 226.413, 246.125 225.798 C 247.292 223.910, 245.911 222, 243.378 222 C 236.350 222, 187.659 249.947, 168.345 265.066 L 162.190 269.885 156.239 265.692 C 152.966 263.387, 148.423 259.881, 146.142 257.902 L 141.995 254.304 155.748 247.768 C 172.652 239.734, 194.042 231.238, 208 227.015 C 213.775 225.268, 219.175 223.489, 220 223.062 C 222.305 221.869, 222.350 219.258, 220.085 218.046 C 215.149 215.404, 164.063 235.262, 134.500 251.314 C 115.680 261.533, 112.499 264.423, 117 267.216 C 118.093 267.895, 121.006 266.632, 127.742 262.562 L 136.984 256.977 140.691 261.080 C 142.730 263.337, 147.268 267.231, 150.776 269.734 L 157.155 274.286 151.480 280.020 C 145.666 285.896, 144.651 289.116, 148.386 289.836 C 149.614 290.072, 152.381 288.083, 156.494 284.006 L 162.738 277.818 171.119 281.797 C 186.853 289.267, 208.515 295.216, 231.632 298.416 C 259.506 302.275, 301.215 302.330, 322.791 298.537 C 340.933 295.347, 358.591 287.210, 372.113 275.807 L 376.764 271.886 380.132 273.939 C 386.944 278.092, 396.936 275.653, 405.618 267.718 C 411.814 262.055, 411.030 261.789, 416.186 271.298 C 418.651 275.845, 419.780 277.032, 421.415 276.798 C 427.800 275.886, 422.607 266.277, 402.096 241.054 C 394.515 231.730, 389.804 222.834, 386.692 211.963 C 384.331 203.718, 382.466 193, 383.392 193 C 383.646 193, 385.303 195.534, 387.075 198.632 C 388.847 201.729, 392.875 207.005, 396.025 210.357 C 401.039 215.691, 401.955 216.282, 403.376 215.103 C 405.824 213.071, 405.376 211.370, 401.168 206.728 C 393.434 198.195, 384.573 182.345, 383.377 174.904 C 382.842 171.574, 386.305 159.976, 387.822 160.019 C 388.195 160.030, 390.260 163.067, 392.411 166.769 C 398.759 177.696, 410.991 196.284, 413.784 199.250 C 416.717 202.364, 418.205 202.663, 420 200.500 C 420.998 199.298, 420.972 198.630, 419.872 197.132 C 414.508 189.827, 407.097 178.553, 400.155 167.135 L 392.028 153.770 393.906 151.135 C 394.939 149.686, 396.672 147.698, 397.757 146.717 C 399.683 144.977, 399.914 145.166, 407.563 154.717 C 418.530 168.414, 424.960 174.987, 445 192.987 C 487.297 230.979, 494.152 242.616, 492.683 273.941 C 492.090 286.592, 491.009 292.963, 486.871 308.198 L 484.616 316.500 483.342 308.377 C 482.050 300.148, 479.049 290.928, 476.633 287.771 C 475.906 286.820, 474.042 285.384, 472.492 284.580 C 467.435 281.957, 465.028 284.269, 457.590 298.898 C 448.084 317.591, 448.054 317.619, 432.355 321.890 C 428.859 322.841, 427.959 323.645, 426.605 327.029 C 423.954 333.655, 425.076 351.485, 429.544 373.721 C 430.895 380.443, 432 386.118, 432 386.333 C 432 386.810, 412.325 400, 411.614 400 C 410.401 400, 384.656 346.601, 381.722 338 C 378.792 329.410, 378.242 328.500, 375.991 328.500 C 373.726 328.500, 373.521 328.851, 373.733 332.360 C 374.082 338.151, 382.065 357.189, 393.081 378.500 C 410.830 412.835, 417.962 431.481, 422.855 456.331 C 425.430 469.407, 425.824 470.526, 427.960 470.837 C 429.232 471.023, 430.599 470.649, 430.997 470.005 C 432.069 468.270, 427.215 442.797, 424.468 435.750 C 424.025 434.613, 424.261 433.989, 425.143 433.970 C 426.044 433.949, 425.912 433.596, 424.750 432.920 C 423.788 432.359, 423 431.444, 423 430.886 C 423 430.059, 417.251 414.397, 414.549 407.861 C 414.034 406.617, 415.344 405.328, 419.997 402.502 C 441.210 389.616, 462.442 369.956, 474.316 352.205 C 483.618 338.300, 492.594 315.294, 496.906 294.308 C 499.565 281.364, 499.832 258.040, 497.428 248.644 C 492.953 231.155, 481.445 217.032, 445 184.300 C 427.582 168.657, 423.323 164.188, 410.640 148.244 C 399.583 134.343, 400.285 134.553, 392.775 142.906 L 388.314 147.867 384.025 130.184 C 381.666 120.458, 378.493 108.965, 376.973 104.644 L 374.211 96.787 377.090 92.522 C 380.882 86.904, 384.442 78.910, 394.695 53 C 399.374 41.175, 405.519 27.079, 408.351 21.676 C 413.052 12.707, 413.353 11.744, 411.807 10.608 C 410.724 9.811, 401.998 8.882, 387.557 8.025 C 356.479 6.182, 336.586 7.888, 316.974 14.077 L 310.282 16.189 300.891 12.706 C 271.598 1.839, 243.066 0.497, 215.721 8.700 L 206.941 11.333 198.721 8.693 C 188.168 5.305, 183.003 4.192, 169.500 2.398 C 156.195 0.631, 99.573 -0.494, 96.280 0.944 M 144.500 20.634 C 135.388 21.615, 125.570 24.339, 123.430 26.479 C 117.773 32.136, 120.486 68.486, 127.055 75.055 C 129.532 77.532, 129.551 77.530, 135.500 74.090 C 150.711 65.293, 183.360 29.627, 180.474 24.959 C 178.635 21.982, 173.271 20.744, 161.060 20.477 C 154.152 20.326, 146.700 20.397, 144.500 20.634 M 357 22.991 C 350.304 23.879, 344.186 26.351, 343.360 28.503 C 343.010 29.417, 343.826 31.610, 345.277 33.649 C 350.120 40.455, 370.298 64.177, 371.704 64.717 C 372.482 65.015, 374.371 64.061, 375.901 62.595 C 380.599 58.094, 390.285 38.259, 392.410 28.790 C 393.197 25.284, 391.678 24.479, 381.651 23.084 C 373.114 21.897, 365.472 21.868, 357 22.991 M 294.532 184.949 C 293.637 186.396, 298.172 193.411, 301.348 195.492 L 303.699 197.033 301.720 203.266 C 297.279 217.257, 290.099 221.165, 275.644 217.459 C 272.947 216.767, 271.062 217.910, 271.015 220.265 C 270.987 221.702, 277.201 224.803, 281.353 225.424 C 289.769 226.683, 300.797 221.161, 304.615 213.777 L 306.128 210.851 309.173 215.447 C 313.365 221.776, 319.725 225.404, 325.489 224.754 C 331.411 224.087, 337.418 220.871, 337.820 218.154 C 338.277 215.068, 335.589 214.431, 330.946 216.525 C 321.317 220.867, 314.902 216.663, 310.025 202.815 L 308.181 197.577 311.888 194.851 C 316.581 191.400, 318.861 187.461, 317.154 185.754 C 315.481 184.081, 295.507 183.370, 294.532 184.949 M 190 204.066 C 153.444 205.859, 131.056 209.760, 112.250 217.615 C 105.864 220.282, 104.418 222.442, 107.374 224.896 C 108.423 225.766, 109.829 225.574, 113.304 224.084 C 127.567 217.970, 146.442 213.924, 170 211.928 C 185.009 210.657, 220.614 210.124, 232 211 C 238.100 211.469, 238.519 211.366, 238.811 209.318 C 239.011 207.911, 238.375 206.736, 237.021 206.012 C 234.909 204.881, 215.522 202.915, 209 203.169 C 207.075 203.244, 198.525 203.648, 190 204.066 M 390.476 249.702 C 389.410 252.839, 386.853 258.012, 384.794 261.197 L 381.052 266.988 383.485 268.582 C 386.143 270.324, 390.306 269.881, 395.310 267.323 C 399.546 265.158, 406.004 258.984, 405.968 257.134 C 405.926 254.980, 397.069 245.318, 394.458 244.577 C 392.705 244.079, 392.140 244.806, 390.476 249.702 M 293 434 C 293 438.553, 293.201 438.990, 295.250 438.884 C 296.943 438.797, 297.067 438.655, 295.750 438.311 C 294.465 437.975, 294 436.829, 294 434 C 294 431.171, 294.465 430.025, 295.750 429.689 C 297.067 429.345, 296.943 429.203, 295.250 429.116 C 293.201 429.010, 293 429.447, 293 434 M 308 434 C 308 438.333, 308.267 439, 310 439 C 311.733 439, 312 438.333, 312 434 C 312 429.667, 311.733 429, 310 429 C 308.267 429, 308 429.667, 308 434 M 323 434 C 323 438.333, 323.267 439, 325 439 C 326.733 439, 327 438.333, 327 434 C 327 429.667, 326.733 429, 325 429 C 323.267 429, 323 429.667, 323 434 M 338.175 433.750 C 338.028 438.155, 338.282 438.998, 339.750 438.985 C 340.914 438.975, 341.105 438.718, 340.319 438.218 C 339.669 437.805, 338.960 435.450, 338.744 432.984 L 338.349 428.500 338.175 433.750 M 363.667 429.667 C 363.300 430.033, 363 432.283, 363 434.667 C 363 438.498, 363.260 438.998, 365.250 438.985 C 367.051 438.972, 367.202 438.781, 366.006 438.025 C 364.279 436.933, 364.528 430.929, 366.350 429.765 C 367.115 429.277, 366.970 429.025, 365.917 429.015 C 365.046 429.007, 364.033 429.300, 363.667 429.667 M 378.195 433.741 C 378.421 437.248, 378.941 438.566, 380.193 438.803 C 381.437 439.040, 382.063 438.183, 382.553 435.570 C 383.404 431.033, 382.607 429, 379.977 429 C 378.112 429, 377.923 429.504, 378.195 433.741 M 393 434 C 393 438.757, 393.167 439.115, 395.250 438.820 C 397.203 438.542, 397.500 437.905, 397.500 434 C 397.500 430.095, 397.203 429.458, 395.250 429.180 C 393.167 428.885, 393 429.243, 393 434 M 408.195 433.741 C 408.443 437.592, 408.876 438.538, 410.500 438.778 C 412.344 439.051, 412.362 438.988, 410.729 437.975 C 409.755 437.371, 409.240 436.421, 409.584 435.865 C 410.865 433.791, 410.634 429, 409.253 429 C 408.252 429, 407.971 430.258, 408.195 433.741 M 309 434 C 309 436.200, 309.450 438, 310 438 C 310.550 438, 311 436.200, 311 434 C 311 431.800, 310.550 430, 310 430 C 309.450 430, 309 431.800, 309 434 M 324 434 C 324 436.200, 324.450 438, 325 438 C 325.550 438, 326 436.200, 326 434 C 326 431.800, 325.550 430, 325 430 C 324.450 430, 324 431.800, 324 434 M 379 434 C 379 438.753, 380.490 439.302, 381.375 434.875 C 382.262 430.441, 382.183 430, 380.500 430 C 379.417 430, 379 431.111, 379 434 M 394.605 431.588 C 394.272 432.454, 394 434.289, 394 435.665 C 394 439.414, 396.481 437.952, 396.600 434.133 C 396.710 430.601, 395.551 429.122, 394.605 431.588 M 279.750 433.662 C 280.438 433.940, 281.563 433.940, 282.250 433.662 C 282.938 433.385, 282.375 433.158, 281 433.158 C 279.625 433.158, 279.063 433.385, 279.750 433.662 M 392.093 446.825 C 391.556 447.829, 390.331 455.063, 389.372 462.901 C 387.861 475.243, 387.819 477.279, 389.064 478.100 C 389.882 478.641, 394.158 478.781, 399 478.426 C 408.240 477.749, 410.780 476.325, 408.926 472.862 C 408.125 471.366, 406.759 471, 401.965 471 C 396.308 471, 396 470.874, 396 468.560 C 396 466.477, 396.532 466.075, 399.649 465.810 C 406.154 465.257, 406.934 458.932, 400.590 458.178 C 398.304 457.906, 397.929 457.437, 398.191 455.178 C 398.471 452.752, 398.971 452.453, 403.500 452 C 407.837 451.566, 408.545 451.183, 408.837 449.113 C 409.304 445.817, 407.571 445.033, 399.785 445.015 C 394.298 445.003, 392.892 445.334, 392.093 446.825 M 358.171 448.750 C 357.676 449.712, 357.022 452.457, 356.718 454.848 C 356.160 459.227, 352.845 464, 350.361 464 C 347.863 464, 346.886 460.340, 348.099 455.523 C 348.984 452.007, 348.961 450.658, 347.997 449.497 C 345.822 446.875, 343.015 447.720, 341.449 451.468 C 337.395 461.171, 341.891 471, 350.385 471 L 354.392 471 351.196 474.298 C 347.540 478.069, 347.032 481.558, 350.001 482.500 C 354.657 483.978, 361.062 475.947, 362.933 466.283 C 364.926 455.992, 365.087 450.230, 363.429 448.572 C 361.365 446.508, 359.287 446.578, 358.171 448.750 M 250.118 450.250 C 249.660 451.488, 248.503 458.477, 247.546 465.782 C 245.353 482.535, 245.164 482.219, 256.870 481.360 C 267.854 480.555, 270.487 478.630, 266.313 474.456 C 264.969 473.112, 263.546 472.896, 259.313 473.393 C 254.670 473.939, 254.002 473.796, 254.015 472.259 C 254.041 469.334, 255.344 468.179, 259.009 467.831 C 262.148 467.533, 262.500 467.197, 262.500 464.500 C 262.500 461.835, 262.130 461.465, 259.190 461.182 C 256.252 460.900, 255.915 460.563, 256.190 458.182 C 256.469 455.769, 256.951 455.470, 261 455.203 C 266.177 454.861, 268.487 452.779, 266.926 449.862 C 266.090 448.300, 264.721 448, 258.440 448 C 251.586 448, 250.880 448.191, 250.118 450.250 M 451.699 449.343 C 451.415 450.082, 450.862 453.345, 450.470 456.593 C 449.417 465.312, 448.656 465.936, 446.222 460.079 C 444.475 455.876, 443.676 455, 441.591 455 C 438.296 455, 437.620 456.457, 435.020 469.164 C 432.292 482.500, 432.482 484.500, 436.479 484.500 C 439.345 484.500, 439.518 484.237, 441.081 477.500 L 442.705 470.500 445.340 476.250 C 447.504 480.972, 448.414 482, 450.428 482 C 453.444 482, 453.766 481.499, 455.040 474.827 C 457.827 460.242, 458.886 450.567, 457.834 449.300 C 456.422 447.598, 452.357 447.627, 451.699 449.343 M 310.035 452.407 C 309.532 453.730, 308.810 457.555, 308.431 460.907 C 308.052 464.258, 307.410 467, 307.004 467 C 306.599 467, 305.332 464.750, 304.189 462 C 302.660 458.322, 301.574 457, 300.078 457 C 296.960 457, 295.420 460.465, 292.900 473.148 C 290.959 482.920, 290.800 485.054, 291.915 486.398 C 293.861 488.742, 296.909 488.368, 297.940 485.659 C 298.429 484.371, 299.144 481.221, 299.528 478.659 C 299.913 476.096, 300.566 474, 300.980 474 C 301.394 474, 302.671 476.255, 303.816 479.012 C 304.962 481.769, 306.614 484.298, 307.487 484.633 C 311.045 485.999, 312.591 482.437, 314.990 467.351 C 317.249 453.143, 317.263 452.666, 315.468 451.353 C 312.751 449.366, 311.067 449.693, 310.035 452.407 M 190.011 454.486 C 189.146 455.528, 188.889 459.190, 189.148 466.736 C 189.443 475.309, 189.935 478.211, 191.562 480.995 C 194.027 485.210, 197.909 486.850, 201.877 485.353 C 204.008 484.548, 205.126 484.619, 206.532 485.647 C 209.182 487.584, 213.328 487.316, 216.249 485.019 C 219.956 482.103, 222.169 475.604, 222.745 465.949 C 223.178 458.693, 222.989 457.132, 221.503 455.646 C 220.539 454.682, 218.794 454.030, 217.625 454.197 C 215.662 454.477, 215.460 455.261, 214.973 464.500 C 214.253 478.173, 211.252 483.109, 208.617 474.956 C 206.754 469.190, 201.056 469.786, 201.015 475.750 C 200.997 478.416, 198.552 478.758, 197.433 476.250 C 197.003 475.288, 196.590 470.206, 196.514 464.958 C 196.438 459.711, 196.040 454.873, 195.629 454.208 C 194.598 452.540, 191.499 452.693, 190.011 454.486" stroke="none" fill="black" fill-rule="evenodd"/>
</svg>